<svg xmlns="http://www.w3.org/2000/svg"><symbol id="bag" viewBox="0 0 256 256"><path fill="#6b2811" d="M227.77 252.75H28.23A24.23 24.23 0 0 1 4 228.54V98.79a24.23 24.23 0 0 1 24.2-24.21h199.57A24.23 24.23 0 0 1 252 98.79v129.75a24.23 24.23 0 0 1-24.23 24.21zM28.23 90.58A8.21 8.21 0 0 0 20 98.79v129.75a8.22 8.22 0 0 0 8.2 8.21h199.57a8.22 8.22 0 0 0 8.2-8.21V98.79a8.21 8.21 0 0 0-8.2-8.21zm141.4-23.71a8 8 0 0 1-8-8v-8.34c0-17.25-15.09-31.27-33.63-31.27s-33.63 14-33.63 31.27v8.34a8 8 0 1 1-16 0v-8.34c0-26.07 22.26-47.27 49.63-47.27s49.63 21.2 49.63 47.27v8.34a8 8 0 0 1-8 8z"/></symbol></svg>