<svg id="Layer_1" data-name="Layer 1" xmlns="http://www.w3.org/2000/svg" viewBox="0 0 256 256"><defs><style>.cls-1{fill:#f4f6f7;}.cls-2{fill:#afbabc;}.cls-3{fill:#6c2506;}.cls-4{isolation:isolate;}</style></defs><title>logo</title><rect class="cls-1" x="-0.08" y="-0.05" width="256" height="256"/><path class="cls-2" d="M213.77,138.37c-16.2,10.76-35.7,16.75-54.79,19.68a199.53,199.53,0,0,1-69.36-1.35c-18.3-3.66-37-10.28-51.89-21.75a68.81,68.81,0,0,1-14.91-15.38V164.9c.54,21.7,19.5,41.39,49,52.36,16.29,6.07,35.61,9.58,56.32,9.58s40-3.51,56.31-9.57c29.51-11,49-30.38,49.1-52.35l-.1-42.74c0-.78,0-1.54,0-2.35C228.27,127.25,221.12,133.48,213.77,138.37Z"/><path class="cls-2" d="M184.6,71c-16.29-6.06-35.62-9.58-56.33-9.58S88.25,64.92,72,71C57,76.54,44.62,84.26,36,93.38c2.15,10.22,11.65,17.71,20.15,22.71C86,133.65,126,136,159.35,130.1c15.27-2.7,30.64-7.27,43.77-15.73,7.66-4.93,15.34-12,17.31-21.08C211.84,84.21,199.49,76.53,184.6,71Z"/><path class="cls-3" d="M233.76,83.85c-1.72-32.18-42.51-46.71-68.9-51.71-38.09-7.21-84.59-4.93-118.09,16.63C35.68,55.9,25.25,66.23,23,79.74s4.54,25.83,14.4,34.53c28.8,25.41,75,29.88,111.58,26,20.94-2.25,42.69-7.41,60.6-18.94,12.44-8,23.23-19.73,24.13-35,0-.41.07-.82.08-1.23S233.78,84.25,233.76,83.85ZM49.41,62.65c26.44-20,65.53-23.12,97.36-20.09,17.87,1.7,36.3,6,52,14.85,10.26,5.77,21.73,14.79,22,27.62a21,21,0,0,1-.48,4c-2,9.1-9.65,16.13-17.3,21.06-13.13,8.45-28.5,13-43.77,15.7-33.4,5.89-73.35,3.55-103.18-14-8.5-5-18-12.48-20.15-22.69-.08-.36-.17-.72-.23-1.09C34.12,77.54,41.57,68.6,49.41,62.65Z"/><g id="Ǧ" class="cls-4"><g class="cls-4"><path class="cls-3" d="M156.4,85.84a73.67,73.67,0,0,0-15.15,9.54,72.66,72.66,0,0,0-11.9,11.9H127.1A66.67,66.67,0,0,0,115.38,95.5a78.87,78.87,0,0,0-15.33-9.66l.62-1.87a165.37,165.37,0,0,1,16.83,3.37,88,88,0,0,1,13.22,4.24,67.23,67.23,0,0,1,11.09-4.24,120.12,120.12,0,0,1,14-3.37Z"/></g></g></svg>